states
version=1
nRows=4
nColumns=105
inDegrees=no
endheader
time	gnd_pelvis/pelvis_tilt/value	gnd_pelvis/pelvis_tilt/speed	gnd_pelvis/pelvis_list/value	gnd_pelvis/pelvis_list/speed	gnd_pelvis/pelvis_rot/value	gnd_pelvis/pelvis_rot/speed	gnd_pelvis/pelvis_tx/value	gnd_pelvis/pelvis_tx/speed	gnd_pelvis/pelvis_ty/value	gnd_pelvis/pelvis_ty/speed	gnd_pelvis/pelvis_tz/value	gnd_pelvis/pelvis_tz/speed	hip_r/hip_flex_r/value	hip_r/hip_flex_r/speed	hip_r/hip_add_r/value	hip_r/hip_add_r/speed	hip_r/hip_rot_r/value	hip_r/hip_rot_r/speed	pf_r/pf_flex_r/value	pf_r/pf_flex_r/speed	pf_r/pf_rot_r/value	pf_r/pf_rot_r/speed	pf_r/pf_tilt_r/value	pf_r/pf_tilt_r/speed	pf_r/pf_tx_r/value	pf_r/pf_tx_r/speed	pf_r/pf_ty_r/value	pf_r/pf_ty_r/speed	pf_r/pf_tz_r/value	pf_r/pf_tz_r/speed	knee_r/knee_flex_r/value	knee_r/knee_flex_r/speed	knee_r/knee_add_r/value	knee_r/knee_add_r/speed	knee_r/knee_rot_r/value	knee_r/knee_rot_r/speed	knee_r/knee_tx_r/value	knee_r/knee_tx_r/speed	knee_r/knee_ty_r/value	knee_r/knee_ty_r/speed	knee_r/knee_tz_r/value	knee_r/knee_tz_r/speed	ankle_r/ankle_flex_r/value	ankle_r/ankle_flex_r/speed	subtalar_r/subt_angle_r/value	subtalar_r/subt_angle_r/speed	mtp_r/mtp_angle_r/value	mtp_r/mtp_angle_r/speed	hip_l/hip_flex_l/value	hip_l/hip_flex_l/speed	hip_l/hip_add_l/value	hip_l/hip_add_l/speed	hip_l/hip_rot_l/value	hip_l/hip_rot_l/speed	pf_l/pf_l_r3/value	pf_l/pf_l_r3/speed	pf_l/pf_l_tx/value	pf_l/pf_l_tx/speed	pf_l/pf_l_ty/value	pf_l/pf_l_ty/speed	knee_l/knee_flex_l/value	knee_l/knee_flex_l/speed	ankle_l/ankle_flex_l/value	ankle_l/ankle_flex_l/speed	subtalar_l/subt_angle_l/value	subtalar_l/subt_angle_l/speed	mtp_l/mtp_angle_l/value	mtp_l/mtp_angle_l/speed	pelvis_torso/lumbar_ext/value	pelvis_torso/lumbar_ext/speed	pelvis_torso/lumbar_latbend/value	pelvis_torso/lumbar_latbend/speed	pelvis_torso/lumbar_rot/value	pelvis_torso/lumbar_rot/speed	torso_neckhead/neck_ext/value	torso_neckhead/neck_ext/speed	torso_neckhead/neck_latbend/value	torso_neckhead/neck_latbend/speed	torso_neckhead/neck_rot/value	torso_neckhead/neck_rot/speed	acromial_r/arm_add_r/value	acromial_r/arm_add_r/speed	acromial_r/arm_flex_r/value	acromial_r/arm_flex_r/speed	acromial_r/arm_rot_r/value	acromial_r/arm_rot_r/speed	elbow_r/elbow_flex_r/value	elbow_r/elbow_flex_r/speed	radioulnar_r/pro_sup_r/value	radioulnar_r/pro_sup_r/speed	radius_hand_r/wrist_flex_r/value	radius_hand_r/wrist_flex_r/speed	acromial_l/arm_add_l/value	acromial_l/arm_add_l/speed	acromial_l/arm_flex_l/value	acromial_l/arm_flex_l/speed	acromial_l/arm_rot_l/value	acromial_l/arm_rot_l/speed	elbow_l/elbow_flex_l/value	elbow_l/elbow_flex_l/speed	radioulnar_l/pro_sup_l/value	radioulnar_l/pro_sup_l/speed	radius_hand_l/wrist_flex_l/value	radius_hand_l/wrist_flex_l/speed
      2.50000000	      0.00000000	      0.00000000	     -0.00000000	     -0.00000000	      0.00000000	      0.00000000	     -0.00000000	     -0.00000000	      0.96900000	      0.00000000	     -0.00000000	     -0.00000000	     -0.00000000	     -0.00000000	      0.00000000	      0.00000000	     -0.00000000	     -0.00000000	      0.61429377	     -0.01294083	      0.05617327	     -0.00376572	     -0.01948354	     -0.00380390	      0.03956071	      0.00034184	     -0.02129978	      0.00166491	      0.00532373	      0.00014933	      0.69813171	      0.00000001	      0.06721368	      0.00021406	     -0.02883057	     -0.00200410	      0.00020921	     -0.00011879	      0.00157791	      0.00013147	     -0.00060471	      0.00000322	      0.00000000	      0.00000000	     -0.00000000	     -0.00000000	     -0.00000000	     -0.00000000	     -0.00000000	     -0.00000000	      0.00000000	      0.00000000	     -0.00000000	     -0.00000000	      0.00113686	      0.00000000	      0.04435000	      0.00000000	     -0.41871200	      0.00000000	     -0.00000000	     -0.00000000	      0.00000000	      0.00000000	      0.00000000	      0.00000000	     -0.00000000	     -0.00000000	     -0.00000000	     -0.00000000	      0.00000000	      0.00000000	      0.00000000	      0.00000000	     -0.00000000	      0.00000000	     -0.00000000	     -0.00000000	     -0.00000000	      0.00000000	     -0.00000000	     -0.00000000	     -0.00000000	      0.00000000	     -0.00000000	      0.00000000	      0.00000000	     -0.00000000	      1.04719755	     -0.00000000	      0.00000000	      0.00000000	      0.00000000	      0.00000000	      0.00000000	     -0.00000000	      0.00000000	      0.00000000	     -0.00000000	      0.00000000	      1.04719755	      0.00000000	      0.00000000	     -0.00000000
      2.51000000	      0.00000000	      0.00000000	     -0.00000000	     -0.00000000	      0.00000000	      0.00000000	     -0.00000000	     -0.00000000	      0.96900000	      0.00000000	     -0.00000000	     -0.00000000	     -0.00000000	     -0.00000000	      0.00000000	      0.00000000	     -0.00000000	     -0.00000000	      0.61405024	     -0.02657812	      0.05610762	     -0.00808417	     -0.01956447	     -0.01458804	      0.03960593	      0.00870439	     -0.02124376	      0.00952141	      0.00532384	     -0.00041021	      0.69813171	      0.00000001	      0.06720341	     -0.00287711	     -0.02882134	      0.00740706	      0.00021406	      0.00184974	      0.00157787	     -0.00067037	     -0.00060730	     -0.00049048	      0.00000000	      0.00000000	     -0.00000000	     -0.00000000	     -0.00000000	     -0.00000000	     -0.00000000	     -0.00000000	      0.00000000	      0.00000000	     -0.00000000	     -0.00000000	      0.00113686	      0.00000000	      0.04435000	      0.00000000	     -0.41871200	      0.00000000	     -0.00000000	     -0.00000000	      0.00000000	      0.00000000	      0.00000000	      0.00000000	     -0.00000000	     -0.00000000	     -0.00000000	     -0.00000000	      0.00000000	      0.00000000	      0.00000000	      0.00000000	     -0.00000000	      0.00000000	     -0.00000000	     -0.00000000	     -0.00000000	      0.00000000	     -0.00000000	     -0.00000000	     -0.00000000	      0.00000000	     -0.00000000	      0.00000000	      0.00000000	     -0.00000000	      1.04719755	     -0.00000000	      0.00000000	      0.00000000	      0.00000000	      0.00000000	      0.00000000	     -0.00000000	      0.00000000	      0.00000000	     -0.00000000	      0.00000000	      1.04719755	      0.00000000	      0.00000000	     -0.00000000
      2.52000000	      0.00000000	      0.00000000	     -0.00000000	     -0.00000000	      0.00000000	      0.00000000	     -0.00000000	     -0.00000000	      0.96900000	      0.00000000	     -0.00000000	     -0.00000000	     -0.00000000	     -0.00000000	      0.00000000	      0.00000000	     -0.00000000	     -0.00000000	      0.61389455	     -0.00776558	      0.05603670	     -0.00599797	     -0.01980209	     -0.03347704	      0.03969757	      0.00747205	     -0.02114277	      0.00855981	      0.00531113	     -0.00200056	      0.69813171	      0.00000001	      0.06715519	     -0.00634210	     -0.02862051	      0.03332028	      0.00025727	      0.00653669	      0.00155404	     -0.00408633	     -0.00060973	      0.00024614	      0.00000000	      0.00000000	     -0.00000000	     -0.00000000	     -0.00000000	     -0.00000000	     -0.00000000	     -0.00000000	      0.00000000	      0.00000000	     -0.00000000	     -0.00000000	      0.00113686	      0.00000000	      0.04435000	      0.00000000	     -0.41871200	      0.00000000	     -0.00000000	     -0.00000000	      0.00000000	      0.00000000	      0.00000000	      0.00000000	     -0.00000000	     -0.00000000	     -0.00000000	     -0.00000000	      0.00000000	      0.00000000	      0.00000000	      0.00000000	     -0.00000000	      0.00000000	     -0.00000000	     -0.00000000	     -0.00000000	      0.00000000	     -0.00000000	     -0.00000000	     -0.00000000	      0.00000000	     -0.00000000	      0.00000000	      0.00000000	      0.00000000	      1.04719755	     -0.00000000	      0.00000000	      0.00000000	      0.00000000	      0.00000000	      0.00000000	     -0.00000000	      0.00000000	      0.00000000	     -0.00000000	      0.00000000	      1.04719755	      0.00000000	      0.00000000	     -0.00000000
      2.53000000	      0.00000000	      0.00000000	     -0.00000000	     -0.00000000	      0.00000000	      0.00000000	     -0.00000000	     -0.00000000	      0.96900000	      0.00000000	     -0.00000000	     -0.00000000	     -0.00000000	     -0.00000000	      0.00000000	      0.00000000	     -0.00000000	     -0.00000000	      0.61374378	     -0.02809813	      0.05597011	     -0.00856508	     -0.02020345	     -0.04389943	      0.03974524	      0.00319436	     -0.02108521	      0.00379642	      0.00529606	     -0.00037960	      0.69813171	      0.00000001	      0.06708320	     -0.00795429	     -0.02820281	      0.04679308	      0.00032090	      0.00470689	      0.00151214	     -0.00313834	     -0.00060397	      0.00056537	      0.00000000	      0.00000000	     -0.00000000	     -0.00000000	     -0.00000000	     -0.00000000	     -0.00000000	     -0.00000000	      0.00000000	      0.00000000	     -0.00000000	     -0.00000000	      0.00113686	      0.00000000	      0.04435000	      0.00000000	     -0.41871200	      0.00000000	     -0.00000000	     -0.00000000	      0.00000000	      0.00000000	      0.00000000	      0.00000000	     -0.00000000	     -0.00000000	     -0.00000000	     -0.00000000	      0.00000000	      0.00000000	      0.00000000	      0.00000000	     -0.00000000	      0.00000000	     -0.00000000	     -0.00000000	     -0.00000000	      0.00000000	     -0.00000000	     -0.00000000	     -0.00000000	      0.00000000	     -0.00000000	      0.00000000	      0.00000000	     -0.00000000	      1.04719755	     -0.00000000	      0.00000000	      0.00000000	      0.00000000	      0.00000000	      0.00000000	     -0.00000000	      0.00000000	      0.00000000	     -0.00000000	      0.00000000	      1.04719755	      0.00000000	      0.00000000	     -0.00000000
